<?xml version="1.0" standalone="no"?>
<!DOCTYPE svg PUBLIC "-//W3C//DTD SVG 20010904//EN"
 "http://www.w3.org/TR/2001/REC-SVG-20010904/DTD/svg10.dtd">
<svg version="1.0" xmlns="http://www.w3.org/2000/svg"
 width="50.000000pt" height="50.000000pt" viewBox="0 0 500 500"
 preserveAspectRatio="xMidYMid meet">

<g transform="translate(0.000000,500.000000) scale(0.100000,-0.100000)"
fill="#ffffff" stroke="none">
<path d="M1605 4320 l-180 -180 375 -378 c206 -207 520 -523 698 -702 l322
-325 -157 -157 -158 -157 -703 696 -703 697 -182 -182 -182 -182 700 -700 700
-700 -178 -177 -177 -178 -685 685 -685 685 -180 -180 c-99 -99 -179 -184
-178 -190 2 -5 392 -398 868 -872 l866 -862 359 359 360 360 365 -365 365
-365 183 183 182 182 -365 365 -365 365 160 160 160 160 365 -365 365 -365
537 538 538 537 -153 152 -152 153 -351 -351 -351 -351 -1095 1094 c-602 601
-1098 1093 -1102 1093 -3 0 -87 -81 -186 -180z"/>
</g>
</svg>
